# https://github.com/mikedh/trimesh
v 0.01300000 0.00000000 0.00080000
v 0.01297217 -0.00085024 0.00080000
v 0.01288878 -0.00169684 0.00080000
v 0.01275021 -0.00253617 0.00080000
v 0.01255704 -0.00336465 0.00080000
v 0.01231009 -0.00417871 0.00080000
v 0.01201043 -0.00497488 0.00080000
v 0.01165935 -0.00574975 0.00080000
v 0.01125833 -0.00650000 0.00080000
v 0.01080910 -0.00722241 0.00080000
v 0.01031359 -0.00791390 0.00080000
v 0.00977392 -0.00857150 0.00080000
v 0.00919239 -0.00919239 0.00080000
v 0.00857150 -0.00977392 0.00080000
v 0.00791390 -0.01031359 0.00080000
v 0.00722241 -0.01080910 0.00080000
v 0.00650000 -0.01125833 0.00080000
v 0.00574975 -0.01165935 0.00080000
v 0.00497488 -0.01201043 0.00080000
v 0.00417871 -0.01231009 0.00080000
v 0.00336465 -0.01255704 0.00080000
v 0.00253617 -0.01275021 0.00080000
v 0.00169684 -0.01288878 0.00080000
v 0.00085024 -0.01297217 0.00080000
v 0.00000000 -0.01300000 0.00080000
v -0.00085024 -0.01297217 0.00080000
v -0.00169684 -0.01288878 0.00080000
v -0.00253617 -0.01275021 0.00080000
v -0.00336465 -0.01255704 0.00080000
v -0.00417871 -0.01231009 0.00080000
v -0.00497488 -0.01201043 0.00080000
v -0.00574975 -0.01165935 0.00080000
v -0.00650000 -0.01125833 0.00080000
v -0.00722241 -0.01080910 0.00080000
v -0.00791390 -0.01031359 0.00080000
v -0.00857150 -0.00977392 0.00080000
v -0.00919239 -0.00919239 0.00080000
v -0.00977392 -0.00857150 0.00080000
v -0.01031359 -0.00791390 0.00080000
v -0.01080910 -0.00722241 0.00080000
v -0.01125833 -0.00650000 0.00080000
v -0.01165935 -0.00574975 0.00080000
v -0.01201043 -0.00497488 0.00080000
v -0.01231009 -0.00417871 0.00080000
v -0.01255704 -0.00336465 0.00080000
v -0.01275021 -0.00253617 0.00080000
v -0.01288878 -0.00169684 0.00080000
v -0.01297217 -0.00085024 0.00080000
v -0.01300000 -0.00000000 0.00080000
v -0.01297217 0.00085024 0.00080000
v -0.01288878 0.00169684 0.00080000
v -0.01275021 0.00253617 0.00080000
v -0.01255704 0.00336465 0.00080000
v -0.01231009 0.00417871 0.00080000
v -0.01201043 0.00497488 0.00080000
v -0.01165935 0.00574975 0.00080000
v -0.01125833 0.00650000 0.00080000
v -0.01080910 0.00722241 0.00080000
v -0.01031359 0.00791390 0.00080000
v -0.00977392 0.00857150 0.00080000
v -0.00919239 0.00919239 0.00080000
v -0.00857150 0.00977392 0.00080000
v -0.00791390 0.01031359 0.00080000
v -0.00722241 0.01080910 0.00080000
v -0.00650000 0.01125833 0.00080000
v -0.00574975 0.01165935 0.00080000
v -0.00497488 0.01201043 0.00080000
v -0.00417871 0.01231009 0.00080000
v -0.00336465 0.01255704 0.00080000
v -0.00253617 0.01275021 0.00080000
v -0.00169684 0.01288878 0.00080000
v -0.00085024 0.01297217 0.00080000
v -0.00000000 0.01300000 0.00080000
v 0.00085024 0.01297217 0.00080000
v 0.00169684 0.01288878 0.00080000
v 0.00253617 0.01275021 0.00080000
v 0.00336465 0.01255704 0.00080000
v 0.00417871 0.01231009 0.00080000
v 0.00497488 0.01201043 0.00080000
v 0.00574975 0.01165935 0.00080000
v 0.00650000 0.01125833 0.00080000
v 0.00722241 0.01080910 0.00080000
v 0.00791390 0.01031359 0.00080000
v 0.00857150 0.00977392 0.00080000
v 0.00919239 0.00919239 0.00080000
v 0.00977392 0.00857150 0.00080000
v 0.01031359 0.00791390 0.00080000
v 0.01080910 0.00722241 0.00080000
v 0.01125833 0.00650000 0.00080000
v 0.01165935 0.00574975 0.00080000
v 0.01201043 0.00497488 0.00080000
v 0.01231009 0.00417871 0.00080000
v 0.01255704 0.00336465 0.00080000
v 0.01275021 0.00253617 0.00080000
v 0.01288878 0.00169684 0.00080000
v 0.01297217 0.00085024 0.00080000
v -0.00687788 -0.00024493 0.00080000
v -0.00625795 -0.00092196 0.00080000
v -0.00550000 -0.00143983 0.00080000
v -0.00464395 -0.00177126 0.00080000
v -0.00373488 -0.00189881 0.00080000
v -0.00298282 -0.00153490 0.00080000
v -0.00282067 -0.00181575 0.00080000
v -0.00351186 -0.00228509 0.00080000
v -0.00385593 -0.00313614 0.00080000
v -0.00399693 -0.00404323 0.00080000
v -0.00392741 -0.00495856 0.00080000
v -0.00365106 -0.00583395 0.00080000
v -0.00318241 -0.00662328 0.00080000
v -0.00254615 -0.00728498 0.00080000
v -0.00177579 -0.00778421 0.00080000
v -0.00091191 -0.00809467 0.00080000
v 0.00000000 -0.00820000 0.00080000
v 0.00091191 -0.00809467 0.00080000
v 0.00177579 -0.00778421 0.00080000
v 0.00254615 -0.00728498 0.00080000
v 0.00318241 -0.00662328 0.00080000
v 0.00365106 -0.00583395 0.00080000
v 0.00392741 -0.00495856 0.00080000
v 0.00399693 -0.00404323 0.00080000
v 0.00385593 -0.00313614 0.00080000
v 0.00351186 -0.00228509 0.00080000
v 0.00282067 -0.00181575 0.00080000
v 0.00298282 -0.00153490 0.00080000
v 0.00373488 -0.00189881 0.00080000
v 0.00464395 -0.00177126 0.00080000
v 0.00550000 -0.00143983 0.00080000
v 0.00625795 -0.00092196 0.00080000
v 0.00687788 -0.00024493 0.00080000
v 0.00732713 0.00055560 0.00080000
v 0.00758206 0.00143746 0.00080000
v 0.00762922 0.00235422 0.00080000
v 0.00746614 0.00325760 0.00080000
v 0.00710141 0.00410000 0.00080000
v 0.00655423 0.00483707 0.00080000
v 0.00585343 0.00542999 0.00080000
v 0.00503591 0.00584752 0.00080000
v 0.00414473 0.00606769 0.00080000
v 0.00322682 0.00607888 0.00080000
v 0.00233053 0.00588052 0.00080000
v 0.00150307 0.00548305 0.00080000
v 0.00078801 0.00490741 0.00080000
v 0.00022302 0.00418390 0.00080000
v 0.00016215 0.00335065 0.00080000
v -0.00016215 0.00335065 0.00080000
v -0.00022302 0.00418390 0.00080000
v -0.00078801 0.00490741 0.00080000
v -0.00150307 0.00548305 0.00080000
v -0.00233053 0.00588052 0.00080000
v -0.00322682 0.00607888 0.00080000
v -0.00414473 0.00606769 0.00080000
v -0.00503591 0.00584752 0.00080000
v -0.00585343 0.00542999 0.00080000
v -0.00655423 0.00483707 0.00080000
v -0.00710141 0.00410000 0.00080000
v -0.00746614 0.00325760 0.00080000
v -0.00762922 0.00235422 0.00080000
v -0.00758206 0.00143746 0.00080000
v -0.00732713 0.00055560 0.00080000
v 0.01300000 -0.00000000 -0.00080000
v 0.01297217 -0.00085024 -0.00080000
v 0.01288878 -0.00169684 -0.00080000
v 0.01275021 -0.00253617 -0.00080000
v 0.01255704 -0.00336465 -0.00080000
v 0.01231009 -0.00417871 -0.00080000
v 0.01201043 -0.00497488 -0.00080000
v 0.01165935 -0.00574975 -0.00080000
v 0.01125833 -0.00650000 -0.00080000
v 0.01080910 -0.00722241 -0.00080000
v 0.01031359 -0.00791390 -0.00080000
v 0.00977392 -0.00857150 -0.00080000
v 0.00919239 -0.00919239 -0.00080000
v 0.00857150 -0.00977392 -0.00080000
v 0.00791390 -0.01031359 -0.00080000
v 0.00722241 -0.01080910 -0.00080000
v 0.00650000 -0.01125833 -0.00080000
v 0.00574975 -0.01165935 -0.00080000
v 0.00497488 -0.01201043 -0.00080000
v 0.00417871 -0.01231009 -0.00080000
v 0.00336465 -0.01255704 -0.00080000
v 0.00253617 -0.01275021 -0.00080000
v 0.00169684 -0.01288878 -0.00080000
v 0.00085024 -0.01297217 -0.00080000
v 0.00000000 -0.01300000 -0.00080000
v -0.00085024 -0.01297217 -0.00080000
v -0.00169684 -0.01288878 -0.00080000
v -0.00253617 -0.01275021 -0.00080000
v -0.00336465 -0.01255704 -0.00080000
v -0.00417871 -0.01231009 -0.00080000
v -0.00497488 -0.01201043 -0.00080000
v -0.00574975 -0.01165935 -0.00080000
v -0.00650000 -0.01125833 -0.00080000
v -0.00722241 -0.01080910 -0.00080000
v -0.00791390 -0.01031359 -0.00080000
v -0.00857150 -0.00977392 -0.00080000
v -0.00919239 -0.00919239 -0.00080000
v -0.00977392 -0.00857150 -0.00080000
v -0.01031359 -0.00791390 -0.00080000
v -0.01080910 -0.00722241 -0.00080000
v -0.01125833 -0.00650000 -0.00080000
v -0.01165935 -0.00574975 -0.00080000
v -0.01201043 -0.00497488 -0.00080000
v -0.01231009 -0.00417871 -0.00080000
v -0.01255704 -0.00336465 -0.00080000
v -0.01275021 -0.00253617 -0.00080000
v -0.01288878 -0.00169684 -0.00080000
v -0.01297217 -0.00085024 -0.00080000
v -0.01300000 -0.00000000 -0.00080000
v -0.01297217 0.00085024 -0.00080000
v -0.01288878 0.00169684 -0.00080000
v -0.01275021 0.00253617 -0.00080000
v -0.01255704 0.00336465 -0.00080000
v -0.01231009 0.00417871 -0.00080000
v -0.01201043 0.00497488 -0.00080000
v -0.01165935 0.00574975 -0.00080000
v -0.01125833 0.00650000 -0.00080000
v -0.01080910 0.00722241 -0.00080000
v -0.01031359 0.00791390 -0.00080000
v -0.00977392 0.00857150 -0.00080000
v -0.00919239 0.00919239 -0.00080000
v -0.00857150 0.00977392 -0.00080000
v -0.00791390 0.01031359 -0.00080000
v -0.00722241 0.01080910 -0.00080000
v -0.00650000 0.01125833 -0.00080000
v -0.00574975 0.01165935 -0.00080000
v -0.00497488 0.01201043 -0.00080000
v -0.00417871 0.01231009 -0.00080000
v -0.00336465 0.01255704 -0.00080000
v -0.00253617 0.01275021 -0.00080000
v -0.00169684 0.01288878 -0.00080000
v -0.00085024 0.01297217 -0.00080000
v -0.00000000 0.01300000 -0.00080000
v 0.00085024 0.01297217 -0.00080000
v 0.00169684 0.01288878 -0.00080000
v 0.00253617 0.01275021 -0.00080000
v 0.00336465 0.01255704 -0.00080000
v 0.00417871 0.01231009 -0.00080000
v 0.00497488 0.01201043 -0.00080000
v 0.00574975 0.01165935 -0.00080000
v 0.00650000 0.01125833 -0.00080000
v 0.00722241 0.01080910 -0.00080000
v 0.00791390 0.01031359 -0.00080000
v 0.00857150 0.00977392 -0.00080000
v 0.00919239 0.00919239 -0.00080000
v 0.00977392 0.00857150 -0.00080000
v 0.01031359 0.00791390 -0.00080000
v 0.01080910 0.00722241 -0.00080000
v 0.01125833 0.00650000 -0.00080000
v 0.01165935 0.00574975 -0.00080000
v 0.01201043 0.00497488 -0.00080000
v 0.01231009 0.00417871 -0.00080000
v 0.01255704 0.00336465 -0.00080000
v 0.01275021 0.00253617 -0.00080000
v 0.01288878 0.00169684 -0.00080000
v 0.01297217 0.00085024 -0.00080000
v -0.00687788 -0.00024493 -0.00080000
v -0.00625795 -0.00092196 -0.00080000
v -0.00550000 -0.00143983 -0.00080000
v -0.00464395 -0.00177126 -0.00080000
v -0.00373488 -0.00189881 -0.00080000
v -0.00298282 -0.00153490 -0.00080000
v -0.00282067 -0.00181575 -0.00080000
v -0.00351186 -0.00228509 -0.00080000
v -0.00385593 -0.00313614 -0.00080000
v -0.00399693 -0.00404323 -0.00080000
v -0.00392741 -0.00495856 -0.00080000
v -0.00365106 -0.00583395 -0.00080000
v -0.00318241 -0.00662328 -0.00080000
v -0.00254615 -0.00728498 -0.00080000
v -0.00177579 -0.00778421 -0.00080000
v -0.00091191 -0.00809467 -0.00080000
v 0.00000000 -0.00820000 -0.00080000
v 0.00091191 -0.00809467 -0.00080000
v 0.00177579 -0.00778421 -0.00080000
v 0.00254615 -0.00728498 -0.00080000
v 0.00318241 -0.00662328 -0.00080000
v 0.00365106 -0.00583395 -0.00080000
v 0.00392741 -0.00495856 -0.00080000
v 0.00399693 -0.00404323 -0.00080000
v 0.00385593 -0.00313614 -0.00080000
v 0.00351186 -0.00228509 -0.00080000
v 0.00282067 -0.00181575 -0.00080000
v 0.00298282 -0.00153490 -0.00080000
v 0.00373488 -0.00189881 -0.00080000
v 0.00464395 -0.00177126 -0.00080000
v 0.00550000 -0.00143983 -0.00080000
v 0.00625795 -0.00092196 -0.00080000
v 0.00687788 -0.00024493 -0.00080000
v 0.00732713 0.00055560 -0.00080000
v 0.00758206 0.00143746 -0.00080000
v 0.00762922 0.00235422 -0.00080000
v 0.00746614 0.00325760 -0.00080000
v 0.00710141 0.00410000 -0.00080000
v 0.00655423 0.00483707 -0.00080000
v 0.00585343 0.00542999 -0.00080000
v 0.00503591 0.00584752 -0.00080000
v 0.00414473 0.00606769 -0.00080000
v 0.00322682 0.00607888 -0.00080000
v 0.00233053 0.00588052 -0.00080000
v 0.00150307 0.00548305 -0.00080000
v 0.00078801 0.00490741 -0.00080000
v 0.00022302 0.00418390 -0.00080000
v 0.00016215 0.00335065 -0.00080000
v -0.00016215 0.00335065 -0.00080000
v -0.00022302 0.00418390 -0.00080000
v -0.00078801 0.00490741 -0.00080000
v -0.00150307 0.00548305 -0.00080000
v -0.00233053 0.00588052 -0.00080000
v -0.00322682 0.00607888 -0.00080000
v -0.00414473 0.00606769 -0.00080000
v -0.00503591 0.00584752 -0.00080000
v -0.00585343 0.00542999 -0.00080000
v -0.00655423 0.00483707 -0.00080000
v -0.00710141 0.00410000 -0.00080000
v -0.00746614 0.00325760 -0.00080000
v -0.00762922 0.00235422 -0.00080000
v -0.00758206 0.00143746 -0.00080000
v -0.00732713 0.00055560 -0.00080000
v 0.00000000 0.08115000 -0.00000000
v 0.00300000 0.08115000 -0.00000000
v 0.00300000 0.00715000 -0.00000000
v 0.00000000 0.00715000 -0.00000000
v 0.00297433 0.08115000 0.00039158
v 0.00297433 0.00715000 0.00039158
v 0.00289778 0.08115000 0.00077646
v 0.00289778 0.00715000 0.00077646
v 0.00277164 0.08115000 0.00114805
v 0.00277164 0.00715000 0.00114805
v 0.00259808 0.08115000 0.00150000
v 0.00259808 0.00715000 0.00150000
v 0.00238006 0.08115000 0.00182628
v 0.00238006 0.00715000 0.00182628
v 0.00212132 0.08115000 0.00212132
v 0.00212132 0.00715000 0.00212132
v 0.00182628 0.08115000 0.00238006
v 0.00182628 0.00715000 0.00238006
v 0.00150000 0.08115000 0.00259808
v 0.00150000 0.00715000 0.00259808
v 0.00114805 0.08115000 0.00277164
v 0.00114805 0.00715000 0.00277164
v 0.00077646 0.08115000 0.00289778
v 0.00077646 0.00715000 0.00289778
v 0.00039158 0.08115000 0.00297433
v 0.00039158 0.00715000 0.00297433
v 0.00000000 0.08115000 0.00300000
v 0.00000000 0.00715000 0.00300000
v -0.00039158 0.08115000 0.00297433
v -0.00039158 0.00715000 0.00297433
v -0.00077646 0.08115000 0.00289778
v -0.00077646 0.00715000 0.00289778
v -0.00114805 0.08115000 0.00277164
v -0.00114805 0.00715000 0.00277164
v -0.00150000 0.08115000 0.00259808
v -0.00150000 0.00715000 0.00259808
v -0.00182628 0.08115000 0.00238006
v -0.00182628 0.00715000 0.00238006
v -0.00212132 0.08115000 0.00212132
v -0.00212132 0.00715000 0.00212132
v -0.00238006 0.08115000 0.00182628
v -0.00238006 0.00715000 0.00182628
v -0.00259808 0.08115000 0.00150000
v -0.00259808 0.00715000 0.00150000
v -0.00277164 0.08115000 0.00114805
v -0.00277164 0.00715000 0.00114805
v -0.00289778 0.08115000 0.00077646
v -0.00289778 0.00715000 0.00077646
v -0.00297433 0.08115000 0.00039158
v -0.00297433 0.00715000 0.00039158
v -0.00300000 0.08115000 -0.00000000
v -0.00300000 0.00715000 -0.00000000
v -0.00297433 0.08115000 -0.00039158
v -0.00297433 0.00715000 -0.00039158
v -0.00289778 0.08115000 -0.00077646
v -0.00289778 0.00715000 -0.00077646
v -0.00277164 0.08115000 -0.00114805
v -0.00277164 0.00715000 -0.00114805
v -0.00259808 0.08115000 -0.00150000
v -0.00259808 0.00715000 -0.00150000
v -0.00238006 0.08115000 -0.00182628
v -0.00238006 0.00715000 -0.00182628
v -0.00212132 0.08115000 -0.00212132
v -0.00212132 0.00715000 -0.00212132
v -0.00182628 0.08115000 -0.00238006
v -0.00182628 0.00715000 -0.00238006
v -0.00150000 0.08115000 -0.00259808
v -0.00150000 0.00715000 -0.00259808
v -0.00114805 0.08115000 -0.00277164
v -0.00114805 0.00715000 -0.00277164
v -0.00077646 0.08115000 -0.00289778
v -0.00077646 0.00715000 -0.00289778
v -0.00039158 0.08115000 -0.00297433
v -0.00039158 0.00715000 -0.00297433
v -0.00000000 0.08115000 -0.00300000
v -0.00000000 0.00715000 -0.00300000
v 0.00039158 0.08115000 -0.00297433
v 0.00039158 0.00715000 -0.00297433
v 0.00077646 0.08115000 -0.00289778
v 0.00077646 0.00715000 -0.00289778
v 0.00114805 0.08115000 -0.00277164
v 0.00114805 0.00715000 -0.00277164
v 0.00150000 0.08115000 -0.00259808
v 0.00150000 0.00715000 -0.00259808
v 0.00182628 0.08115000 -0.00238006
v 0.00182628 0.00715000 -0.00238006
v 0.00212132 0.08115000 -0.00212132
v 0.00212132 0.00715000 -0.00212132
v 0.00238006 0.08115000 -0.00182628
v 0.00238006 0.00715000 -0.00182628
v 0.00259808 0.08115000 -0.00150000
v 0.00259808 0.00715000 -0.00150000
v 0.00277164 0.08115000 -0.00114805
v 0.00277164 0.00715000 -0.00114805
v 0.00289778 0.08115000 -0.00077646
v 0.00289778 0.00715000 -0.00077646
v 0.00297433 0.08115000 -0.00039158
v 0.00297433 0.00715000 -0.00039158
v 0.00000000 0.01005000 -0.00000000
v 0.00435000 0.01005000 -0.00000000
v 0.00435000 0.00825000 -0.00000000
v 0.00000000 0.00825000 -0.00000000
v 0.00429644 0.01005000 0.00068049
v 0.00429644 0.00825000 0.00068049
v 0.00413710 0.01005000 0.00134422
v 0.00413710 0.00825000 0.00134422
v 0.00387588 0.01005000 0.00197486
v 0.00387588 0.00825000 0.00197486
v 0.00351922 0.01005000 0.00255687
v 0.00351922 0.00825000 0.00255687
v 0.00307591 0.01005000 0.00307591
v 0.00307591 0.00825000 0.00307591
v 0.00255687 0.01005000 0.00351922
v 0.00255687 0.00825000 0.00351922
v 0.00197486 0.01005000 0.00387588
v 0.00197486 0.00825000 0.00387588
v 0.00134422 0.01005000 0.00413710
v 0.00134422 0.00825000 0.00413710
v 0.00068049 0.01005000 0.00429644
v 0.00068049 0.00825000 0.00429644
v 0.00000000 0.01005000 0.00435000
v 0.00000000 0.00825000 0.00435000
v -0.00068049 0.01005000 0.00429644
v -0.00068049 0.00825000 0.00429644
v -0.00134422 0.01005000 0.00413710
v -0.00134422 0.00825000 0.00413710
v -0.00197486 0.01005000 0.00387588
v -0.00197486 0.00825000 0.00387588
v -0.00255687 0.01005000 0.00351922
v -0.00255687 0.00825000 0.00351922
v -0.00307591 0.01005000 0.00307591
v -0.00307591 0.00825000 0.00307591
v -0.00351922 0.01005000 0.00255687
v -0.00351922 0.00825000 0.00255687
v -0.00387588 0.01005000 0.00197486
v -0.00387588 0.00825000 0.00197486
v -0.00413710 0.01005000 0.00134422
v -0.00413710 0.00825000 0.00134422
v -0.00429644 0.01005000 0.00068049
v -0.00429644 0.00825000 0.00068049
v -0.00435000 0.01005000 -0.00000000
v -0.00435000 0.00825000 0.00000000
v -0.00429644 0.01005000 -0.00068049
v -0.00429644 0.00825000 -0.00068049
v -0.00413710 0.01005000 -0.00134422
v -0.00413710 0.00825000 -0.00134422
v -0.00387588 0.01005000 -0.00197486
v -0.00387588 0.00825000 -0.00197486
v -0.00351922 0.01005000 -0.00255687
v -0.00351922 0.00825000 -0.00255687
v -0.00307591 0.01005000 -0.00307591
v -0.00307591 0.00825000 -0.00307591
v -0.00255687 0.01005000 -0.00351922
v -0.00255687 0.00825000 -0.00351922
v -0.00197486 0.01005000 -0.00387588
v -0.00197486 0.00825000 -0.00387588
v -0.00134422 0.01005000 -0.00413710
v -0.00134422 0.00825000 -0.00413710
v -0.00068049 0.01005000 -0.00429644
v -0.00068049 0.00825000 -0.00429644
v -0.00000000 0.01005000 -0.00435000
v -0.00000000 0.00825000 -0.00435000
v 0.00068049 0.01005000 -0.00429644
v 0.00068049 0.00825000 -0.00429644
v 0.00134422 0.01005000 -0.00413710
v 0.00134422 0.00825000 -0.00413710
v 0.00197486 0.01005000 -0.00387588
v 0.00197486 0.00825000 -0.00387588
v 0.00255687 0.01005000 -0.00351922
v 0.00255687 0.00825000 -0.00351922
v 0.00307591 0.01005000 -0.00307591
v 0.00307591 0.00825000 -0.00307591
v 0.00351922 0.01005000 -0.00255687
v 0.00351922 0.00825000 -0.00255687
v 0.00387588 0.01005000 -0.00197486
v 0.00387588 0.00825000 -0.00197486
v 0.00413710 0.01005000 -0.00134422
v 0.00413710 0.00825000 -0.00134422
v 0.00429644 0.01005000 -0.00068049
v 0.00429644 0.00825000 -0.00068049
v 0.00000000 0.01305000 -0.00000000
v 0.00435000 0.01305000 -0.00000000
v 0.00435000 0.01125000 -0.00000000
v 0.00000000 0.01125000 -0.00000000
v 0.00429644 0.01305000 0.00068049
v 0.00429644 0.01125000 0.00068049
v 0.00413710 0.01305000 0.00134422
v 0.00413710 0.01125000 0.00134422
v 0.00387588 0.01305000 0.00197486
v 0.00387588 0.01125000 0.00197486
v 0.00351922 0.01305000 0.00255687
v 0.00351922 0.01125000 0.00255687
v 0.00307591 0.01305000 0.00307591
v 0.00307591 0.01125000 0.00307591
v 0.00255687 0.01305000 0.00351922
v 0.00255687 0.01125000 0.00351922
v 0.00197486 0.01305000 0.00387588
v 0.00197486 0.01125000 0.00387588
v 0.00134422 0.01305000 0.00413710
v 0.00134422 0.01125000 0.00413710
v 0.00068049 0.01305000 0.00429644
v 0.00068049 0.01125000 0.00429644
v 0.00000000 0.01305000 0.00435000
v 0.00000000 0.01125000 0.00435000
v -0.00068049 0.01305000 0.00429644
v -0.00068049 0.01125000 0.00429644
v -0.00134422 0.01305000 0.00413710
v -0.00134422 0.01125000 0.00413710
v -0.00197486 0.01305000 0.00387588
v -0.00197486 0.01125000 0.00387588
v -0.00255687 0.01305000 0.00351922
v -0.00255687 0.01125000 0.00351922
v -0.00307591 0.01305000 0.00307591
v -0.00307591 0.01125000 0.00307591
v -0.00351922 0.01305000 0.00255687
v -0.00351922 0.01125000 0.00255687
v -0.00387588 0.01305000 0.00197486
v -0.00387588 0.01125000 0.00197486
v -0.00413710 0.01305000 0.00134422
v -0.00413710 0.01125000 0.00134422
v -0.00429644 0.01305000 0.00068049
v -0.00429644 0.01125000 0.00068049
v -0.00435000 0.01305000 -0.00000000
v -0.00435000 0.01125000 -0.00000000
v -0.00429644 0.01305000 -0.00068049
v -0.00429644 0.01125000 -0.00068049
v -0.00413710 0.01305000 -0.00134422
v -0.00413710 0.01125000 -0.00134422
v -0.00387588 0.01305000 -0.00197486
v -0.00387588 0.01125000 -0.00197486
v -0.00351922 0.01305000 -0.00255687
v -0.00351922 0.01125000 -0.00255687
v -0.00307591 0.01305000 -0.00307591
v -0.00307591 0.01125000 -0.00307591
v -0.00255687 0.01305000 -0.00351922
v -0.00255687 0.01125000 -0.00351922
v -0.00197486 0.01305000 -0.00387588
v -0.00197486 0.01125000 -0.00387588
v -0.00134422 0.01305000 -0.00413710
v -0.00134422 0.01125000 -0.00413710
v -0.00068049 0.01305000 -0.00429644
v -0.00068049 0.01125000 -0.00429644
v -0.00000000 0.01305000 -0.00435000
v -0.00000000 0.01125000 -0.00435000
v 0.00068049 0.01305000 -0.00429644
v 0.00068049 0.01125000 -0.00429644
v 0.00134422 0.01305000 -0.00413710
v 0.00134422 0.01125000 -0.00413710
v 0.00197486 0.01305000 -0.00387588
v 0.00197486 0.01125000 -0.00387588
v 0.00255687 0.01305000 -0.00351922
v 0.00255687 0.01125000 -0.00351922
v 0.00307591 0.01305000 -0.00307591
v 0.00307591 0.01125000 -0.00307591
v 0.00351922 0.01305000 -0.00255687
v 0.00351922 0.01125000 -0.00255687
v 0.00387588 0.01305000 -0.00197486
v 0.00387588 0.01125000 -0.00197486
v 0.00413710 0.01305000 -0.00134422
v 0.00413710 0.01125000 -0.00134422
v 0.00429644 0.01305000 -0.00068049
v 0.00429644 0.01125000 -0.00068049
v 0.00000000 0.01605000 -0.00000000
v 0.00435000 0.01605000 -0.00000000
v 0.00435000 0.01425000 -0.00000000
v 0.00000000 0.01425000 -0.00000000
v 0.00429644 0.01605000 0.00068049
v 0.00429644 0.01425000 0.00068049
v 0.00413710 0.01605000 0.00134422
v 0.00413710 0.01425000 0.00134422
v 0.00387588 0.01605000 0.00197486
v 0.00387588 0.01425000 0.00197486
v 0.00351922 0.01605000 0.00255687
v 0.00351922 0.01425000 0.00255687
v 0.00307591 0.01605000 0.00307591
v 0.00307591 0.01425000 0.00307591
v 0.00255687 0.01605000 0.00351922
v 0.00255687 0.01425000 0.00351922
v 0.00197486 0.01605000 0.00387588
v 0.00197486 0.01425000 0.00387588
v 0.00134422 0.01605000 0.00413710
v 0.00134422 0.01425000 0.00413710
v 0.00068049 0.01605000 0.00429644
v 0.00068049 0.01425000 0.00429644
v 0.00000000 0.01605000 0.00435000
v 0.00000000 0.01425000 0.00435000
v -0.00068049 0.01605000 0.00429644
v -0.00068049 0.01425000 0.00429644
v -0.00134422 0.01605000 0.00413710
v -0.00134422 0.01425000 0.00413710
v -0.00197486 0.01605000 0.00387588
v -0.00197486 0.01425000 0.00387588
v -0.00255687 0.01605000 0.00351922
v -0.00255687 0.01425000 0.00351922
v -0.00307591 0.01605000 0.00307591
v -0.00307591 0.01425000 0.00307591
v -0.00351922 0.01605000 0.00255687
v -0.00351922 0.01425000 0.00255687
v -0.00387588 0.01605000 0.00197486
v -0.00387588 0.01425000 0.00197486
v -0.00413710 0.01605000 0.00134422
v -0.00413710 0.01425000 0.00134422
v -0.00429644 0.01605000 0.00068049
v -0.00429644 0.01425000 0.00068049
v -0.00435000 0.01605000 -0.00000000
v -0.00435000 0.01425000 -0.00000000
v -0.00429644 0.01605000 -0.00068049
v -0.00429644 0.01425000 -0.00068049
v -0.00413710 0.01605000 -0.00134422
v -0.00413710 0.01425000 -0.00134422
v -0.00387588 0.01605000 -0.00197486
v -0.00387588 0.01425000 -0.00197486
v -0.00351922 0.01605000 -0.00255687
v -0.00351922 0.01425000 -0.00255687
v -0.00307591 0.01605000 -0.00307591
v -0.00307591 0.01425000 -0.00307591
v -0.00255687 0.01605000 -0.00351922
v -0.00255687 0.01425000 -0.00351922
v -0.00197486 0.01605000 -0.00387588
v -0.00197486 0.01425000 -0.00387588
v -0.00134422 0.01605000 -0.00413710
v -0.00134422 0.01425000 -0.00413710
v -0.00068049 0.01605000 -0.00429644
v -0.00068049 0.01425000 -0.00429644
v -0.00000000 0.01605000 -0.00435000
v -0.00000000 0.01425000 -0.00435000
v 0.00068049 0.01605000 -0.00429644
v 0.00068049 0.01425000 -0.00429644
v 0.00134422 0.01605000 -0.00413710
v 0.00134422 0.01425000 -0.00413710
v 0.00197486 0.01605000 -0.00387588
v 0.00197486 0.01425000 -0.00387588
v 0.00255687 0.01605000 -0.00351922
v 0.00255687 0.01425000 -0.00351922
v 0.00307591 0.01605000 -0.00307591
v 0.00307591 0.01425000 -0.00307591
v 0.00351922 0.01605000 -0.00255687
v 0.00351922 0.01425000 -0.00255687
v 0.00387588 0.01605000 -0.00197486
v 0.00387588 0.01425000 -0.00197486
v 0.00413710 0.01605000 -0.00134422
v 0.00413710 0.01425000 -0.00134422
v 0.00429644 0.01605000 -0.00068049
v 0.00429644 0.01425000 -0.00068049
v -0.00620000 0.07715000 -0.00065000
v -0.00620000 0.06315000 -0.00065000
v -0.00620000 0.07715000 0.00065000
v -0.00620000 0.06315000 0.00065000
v -0.00300000 0.07715000 -0.00065000
v -0.00300000 0.06315000 -0.00065000
v -0.00300000 0.07715000 0.00065000
v -0.00300000 0.06315000 0.00065000
v -0.01400000 0.07615000 -0.00065000
v -0.01400000 0.07335000 -0.00065000
v -0.01400000 0.07615000 0.00065000
v -0.01400000 0.07335000 0.00065000
v -0.00620000 0.07615000 -0.00065000
v -0.00620000 0.07335000 -0.00065000
v -0.00620000 0.07615000 0.00065000
v -0.00620000 0.07335000 0.00065000
v -0.01400000 0.07155000 -0.00065000
v -0.01400000 0.06875000 -0.00065000
v -0.01400000 0.07155000 0.00065000
v -0.01400000 0.06875000 0.00065000
v -0.00620000 0.07155000 -0.00065000
v -0.00620000 0.06875000 -0.00065000
v -0.00620000 0.07155000 0.00065000
v -0.00620000 0.06875000 0.00065000
v -0.01400000 0.06695000 -0.00065000
v -0.01400000 0.06415000 -0.00065000
v -0.01400000 0.06695000 0.00065000
v -0.01400000 0.06415000 0.00065000
v -0.00620000 0.06695000 -0.00065000
v -0.00620000 0.06415000 -0.00065000
v -0.00620000 0.06695000 0.00065000
v -0.00620000 0.06415000 0.00065000
f 158 157 51
f 103 102 101
f 124 123 122
f 145 144 143
f 51 157 156
f 53 52 51
f 55 54 53
f 57 56 55
f 59 58 57
f 61 60 59
f 63 62 61
f 65 64 63
f 67 66 65
f 69 68 67
f 71 70 69
f 73 72 71
f 75 74 73
f 77 76 75
f 79 78 77
f 81 80 79
f 83 82 81
f 85 84 83
f 87 86 85
f 89 88 87
f 91 90 89
f 93 92 91
f 95 94 93
f 1 96 95
f 3 2 1
f 5 4 3
f 7 6 5
f 9 8 7
f 11 10 9
f 13 12 11
f 15 14 13
f 17 16 15
f 19 18 17
f 21 20 19
f 23 22 21
f 25 24 23
f 27 26 25
f 29 28 27
f 31 30 29
f 33 32 31
f 35 34 33
f 37 36 35
f 39 38 37
f 41 40 39
f 43 42 41
f 45 44 43
f 47 46 45
f 49 48 47
f 51 50 49
f 159 158 51
f 104 103 101
f 125 124 122
f 146 145 143
f 51 156 155
f 55 53 51
f 59 57 55
f 63 61 59
f 67 65 63
f 71 69 67
f 75 73 71
f 79 77 75
f 83 81 79
f 87 85 83
f 91 89 87
f 95 93 91
f 3 1 95
f 7 5 3
f 11 9 7
f 15 13 11
f 19 17 15
f 23 21 19
f 27 25 23
f 31 29 27
f 35 33 31
f 39 37 35
f 43 41 39
f 47 45 43
f 51 49 47
f 97 159 51
f 104 101 100
f 125 122 121
f 146 143 142
f 51 155 154
f 59 55 51
f 67 63 59
f 75 71 67
f 83 79 75
f 91 87 83
f 3 95 91
f 11 7 3
f 19 15 11
f 27 23 19
f 35 31 27
f 43 39 35
f 51 47 43
f 98 97 51
f 104 100 99
f 125 121 120
f 146 142 141
f 51 154 153
f 67 59 51
f 83 75 67
f 3 91 83
f 19 11 3
f 35 27 19
f 51 43 35
f 99 98 51
f 105 104 99
f 126 125 120
f 147 146 141
f 67 51 153
f 99 51 35
f 106 105 99
f 126 120 119
f 147 141 140
f 67 153 152
f 106 99 35
f 127 126 119
f 148 147 140
f 67 152 151
f 107 106 35
f 127 119 118
f 148 140 139
f 67 151 150
f 108 107 35
f 128 127 118
f 149 148 139
f 67 150 149
f 109 108 35
f 129 128 118
f 67 149 139
f 110 109 35
f 67 139 138
f 111 110 35
f 67 138 137
f 111 35 19
f 67 137 136
f 112 111 19
f 83 67 136
f 113 112 19
f 83 136 135
f 114 113 19
f 83 135 134
f 115 114 19
f 83 134 133
f 115 19 3
f 83 133 132
f 116 115 3
f 3 83 132
f 117 116 3
f 3 132 131
f 118 117 3
f 3 131 130
f 129 118 3
f 3 130 129
f 210 316 317
f 260 261 262
f 281 282 283
f 302 303 304
f 315 316 210
f 210 211 212
f 212 213 214
f 214 215 216
f 216 217 218
f 218 219 220
f 220 221 222
f 222 223 224
f 224 225 226
f 226 227 228
f 228 229 230
f 230 231 232
f 232 233 234
f 234 235 236
f 236 237 238
f 238 239 240
f 240 241 242
f 242 243 244
f 244 245 246
f 246 247 248
f 248 249 250
f 250 251 252
f 252 253 254
f 254 255 160
f 160 161 162
f 162 163 164
f 164 165 166
f 166 167 168
f 168 169 170
f 170 171 172
f 172 173 174
f 174 175 176
f 176 177 178
f 178 179 180
f 180 181 182
f 182 183 184
f 184 185 186
f 186 187 188
f 188 189 190
f 190 191 192
f 192 193 194
f 194 195 196
f 196 197 198
f 198 199 200
f 200 201 202
f 202 203 204
f 204 205 206
f 206 207 208
f 208 209 210
f 210 317 318
f 260 262 263
f 281 283 284
f 302 304 305
f 314 315 210
f 210 212 214
f 214 216 218
f 218 220 222
f 222 224 226
f 226 228 230
f 230 232 234
f 234 236 238
f 238 240 242
f 242 244 246
f 246 248 250
f 250 252 254
f 254 160 162
f 162 164 166
f 166 168 170
f 170 172 174
f 174 176 178
f 178 180 182
f 182 184 186
f 186 188 190
f 190 192 194
f 194 196 198
f 198 200 202
f 202 204 206
f 206 208 210
f 210 318 256
f 259 260 263
f 280 281 284
f 301 302 305
f 313 314 210
f 210 214 218
f 218 222 226
f 226 230 234
f 234 238 242
f 242 246 250
f 250 254 162
f 162 166 170
f 170 174 178
f 178 182 186
f 186 190 194
f 194 198 202
f 202 206 210
f 210 256 257
f 258 259 263
f 279 280 284
f 300 301 305
f 312 313 210
f 210 218 226
f 226 234 242
f 242 250 162
f 162 170 178
f 178 186 194
f 194 202 210
f 210 257 258
f 258 263 264
f 279 284 285
f 300 305 306
f 312 210 226
f 194 210 258
f 258 264 265
f 278 279 285
f 299 300 306
f 311 312 226
f 194 258 265
f 278 285 286
f 299 306 307
f 310 311 226
f 194 265 266
f 277 278 286
f 298 299 307
f 309 310 226
f 194 266 267
f 277 286 287
f 298 307 308
f 308 309 226
f 194 267 268
f 277 287 288
f 298 308 226
f 194 268 269
f 297 298 226
f 194 269 270
f 296 297 226
f 178 194 270
f 295 296 226
f 178 270 271
f 295 226 242
f 178 271 272
f 294 295 242
f 178 272 273
f 293 294 242
f 178 273 274
f 292 293 242
f 162 178 274
f 291 292 242
f 162 274 275
f 291 242 162
f 162 275 276
f 290 291 162
f 162 276 277
f 289 290 162
f 162 277 288
f 288 289 162
f 1 2 161
f 2 3 162
f 3 4 163
f 4 5 164
f 5 6 165
f 6 7 166
f 7 8 167
f 8 9 168
f 9 10 169
f 10 11 170
f 11 12 171
f 12 13 172
f 13 14 173
f 14 15 174
f 15 16 175
f 16 17 176
f 17 18 177
f 18 19 178
f 19 20 179
f 20 21 180
f 21 22 181
f 22 23 182
f 23 24 183
f 24 25 184
f 25 26 185
f 26 27 186
f 27 28 187
f 28 29 188
f 29 30 189
f 30 31 190
f 31 32 191
f 32 33 192
f 33 34 193
f 34 35 194
f 35 36 195
f 36 37 196
f 37 38 197
f 38 39 198
f 39 40 199
f 40 41 200
f 41 42 201
f 42 43 202
f 43 44 203
f 44 45 204
f 45 46 205
f 46 47 206
f 47 48 207
f 48 49 208
f 49 50 209
f 50 51 210
f 51 52 211
f 52 53 212
f 53 54 213
f 54 55 214
f 55 56 215
f 56 57 216
f 57 58 217
f 58 59 218
f 59 60 219
f 60 61 220
f 61 62 221
f 62 63 222
f 63 64 223
f 64 65 224
f 65 66 225
f 66 67 226
f 67 68 227
f 68 69 228
f 69 70 229
f 70 71 230
f 71 72 231
f 72 73 232
f 73 74 233
f 74 75 234
f 75 76 235
f 76 77 236
f 77 78 237
f 78 79 238
f 79 80 239
f 80 81 240
f 81 82 241
f 82 83 242
f 83 84 243
f 84 85 244
f 85 86 245
f 86 87 246
f 87 88 247
f 88 89 248
f 89 90 249
f 90 91 250
f 91 92 251
f 92 93 252
f 93 94 253
f 94 95 254
f 95 96 255
f 96 1 160
f 1 161 160
f 2 162 161
f 3 163 162
f 4 164 163
f 5 165 164
f 6 166 165
f 7 167 166
f 8 168 167
f 9 169 168
f 10 170 169
f 11 171 170
f 12 172 171
f 13 173 172
f 14 174 173
f 15 175 174
f 16 176 175
f 17 177 176
f 18 178 177
f 19 179 178
f 20 180 179
f 21 181 180
f 22 182 181
f 23 183 182
f 24 184 183
f 25 185 184
f 26 186 185
f 27 187 186
f 28 188 187
f 29 189 188
f 30 190 189
f 31 191 190
f 32 192 191
f 33 193 192
f 34 194 193
f 35 195 194
f 36 196 195
f 37 197 196
f 38 198 197
f 39 199 198
f 40 200 199
f 41 201 200
f 42 202 201
f 43 203 202
f 44 204 203
f 45 205 204
f 46 206 205
f 47 207 206
f 48 208 207
f 49 209 208
f 50 210 209
f 51 211 210
f 52 212 211
f 53 213 212
f 54 214 213
f 55 215 214
f 56 216 215
f 57 217 216
f 58 218 217
f 59 219 218
f 60 220 219
f 61 221 220
f 62 222 221
f 63 223 222
f 64 224 223
f 65 225 224
f 66 226 225
f 67 227 226
f 68 228 227
f 69 229 228
f 70 230 229
f 71 231 230
f 72 232 231
f 73 233 232
f 74 234 233
f 75 235 234
f 76 236 235
f 77 237 236
f 78 238 237
f 79 239 238
f 80 240 239
f 81 241 240
f 82 242 241
f 83 243 242
f 84 244 243
f 85 245 244
f 86 246 245
f 87 247 246
f 88 248 247
f 89 249 248
f 90 250 249
f 91 251 250
f 92 252 251
f 93 253 252
f 94 254 253
f 95 255 254
f 96 160 255
f 97 98 257
f 98 99 258
f 99 100 259
f 100 101 260
f 101 102 261
f 102 103 262
f 103 104 263
f 104 105 264
f 105 106 265
f 106 107 266
f 107 108 267
f 108 109 268
f 109 110 269
f 110 111 270
f 111 112 271
f 112 113 272
f 113 114 273
f 114 115 274
f 115 116 275
f 116 117 276
f 117 118 277
f 118 119 278
f 119 120 279
f 120 121 280
f 121 122 281
f 122 123 282
f 123 124 283
f 124 125 284
f 125 126 285
f 126 127 286
f 127 128 287
f 128 129 288
f 129 130 289
f 130 131 290
f 131 132 291
f 132 133 292
f 133 134 293
f 134 135 294
f 135 136 295
f 136 137 296
f 137 138 297
f 138 139 298
f 139 140 299
f 140 141 300
f 141 142 301
f 142 143 302
f 143 144 303
f 144 145 304
f 145 146 305
f 146 147 306
f 147 148 307
f 148 149 308
f 149 150 309
f 150 151 310
f 151 152 311
f 152 153 312
f 153 154 313
f 154 155 314
f 155 156 315
f 156 157 316
f 157 158 317
f 158 159 318
f 159 97 256
f 97 257 256
f 98 258 257
f 99 259 258
f 100 260 259
f 101 261 260
f 102 262 261
f 103 263 262
f 104 264 263
f 105 265 264
f 106 266 265
f 107 267 266
f 108 268 267
f 109 269 268
f 110 270 269
f 111 271 270
f 112 272 271
f 113 273 272
f 114 274 273
f 115 275 274
f 116 276 275
f 117 277 276
f 118 278 277
f 119 279 278
f 120 280 279
f 121 281 280
f 122 282 281
f 123 283 282
f 124 284 283
f 125 285 284
f 126 286 285
f 127 287 286
f 128 288 287
f 129 289 288
f 130 290 289
f 131 291 290
f 132 292 291
f 133 293 292
f 134 294 293
f 135 295 294
f 136 296 295
f 137 297 296
f 138 298 297
f 139 299 298
f 140 300 299
f 141 301 300
f 142 302 301
f 143 303 302
f 144 304 303
f 145 305 304
f 146 306 305
f 147 307 306
f 148 308 307
f 149 309 308
f 150 310 309
f 151 311 310
f 152 312 311
f 153 313 312
f 154 314 313
f 155 315 314
f 156 316 315
f 157 317 316
f 158 318 317
f 159 256 318
f 320 319 323
f 320 323 321
f 321 323 324
f 321 324 322
f 323 319 325
f 323 325 324
f 324 325 326
f 324 326 322
f 325 319 327
f 325 327 326
f 326 327 328
f 326 328 322
f 327 319 329
f 327 329 328
f 328 329 330
f 328 330 322
f 329 319 331
f 329 331 330
f 330 331 332
f 330 332 322
f 331 319 333
f 331 333 332
f 332 333 334
f 332 334 322
f 333 319 335
f 333 335 334
f 334 335 336
f 334 336 322
f 335 319 337
f 335 337 336
f 336 337 338
f 336 338 322
f 337 319 339
f 337 339 338
f 338 339 340
f 338 340 322
f 339 319 341
f 339 341 340
f 340 341 342
f 340 342 322
f 341 319 343
f 341 343 342
f 342 343 344
f 342 344 322
f 343 319 345
f 343 345 344
f 344 345 346
f 344 346 322
f 345 319 347
f 345 347 346
f 346 347 348
f 346 348 322
f 347 319 349
f 347 349 348
f 348 349 350
f 348 350 322
f 349 319 351
f 349 351 350
f 350 351 352
f 350 352 322
f 351 319 353
f 351 353 352
f 352 353 354
f 352 354 322
f 353 319 355
f 353 355 354
f 354 355 356
f 354 356 322
f 355 319 357
f 355 357 356
f 356 357 358
f 356 358 322
f 357 319 359
f 357 359 358
f 358 359 360
f 358 360 322
f 359 319 361
f 359 361 360
f 360 361 362
f 360 362 322
f 361 319 363
f 361 363 362
f 362 363 364
f 362 364 322
f 363 319 365
f 363 365 364
f 364 365 366
f 364 366 322
f 365 319 367
f 365 367 366
f 366 367 368
f 366 368 322
f 367 319 369
f 367 369 368
f 368 369 370
f 368 370 322
f 369 319 371
f 369 371 370
f 370 371 372
f 370 372 322
f 371 319 373
f 371 373 372
f 372 373 374
f 372 374 322
f 373 319 375
f 373 375 374
f 374 375 376
f 374 376 322
f 375 319 377
f 375 377 376
f 376 377 378
f 376 378 322
f 377 319 379
f 377 379 378
f 378 379 380
f 378 380 322
f 379 319 381
f 379 381 380
f 380 381 382
f 380 382 322
f 381 319 383
f 381 383 382
f 382 383 384
f 382 384 322
f 383 319 385
f 383 385 384
f 384 385 386
f 384 386 322
f 385 319 387
f 385 387 386
f 386 387 388
f 386 388 322
f 387 319 389
f 387 389 388
f 388 389 390
f 388 390 322
f 389 319 391
f 389 391 390
f 390 391 392
f 390 392 322
f 391 319 393
f 391 393 392
f 392 393 394
f 392 394 322
f 393 319 395
f 393 395 394
f 394 395 396
f 394 396 322
f 395 319 397
f 395 397 396
f 396 397 398
f 396 398 322
f 397 319 399
f 397 399 398
f 398 399 400
f 398 400 322
f 399 319 401
f 399 401 400
f 400 401 402
f 400 402 322
f 401 319 403
f 401 403 402
f 402 403 404
f 402 404 322
f 403 319 405
f 403 405 404
f 404 405 406
f 404 406 322
f 405 319 407
f 405 407 406
f 406 407 408
f 406 408 322
f 407 319 409
f 407 409 408
f 408 409 410
f 408 410 322
f 409 319 411
f 409 411 410
f 410 411 412
f 410 412 322
f 411 319 413
f 411 413 412
f 412 413 414
f 412 414 322
f 413 319 415
f 413 415 414
f 414 415 416
f 414 416 322
f 415 319 320
f 415 320 416
f 416 320 321
f 416 321 322
f 418 417 421
f 418 421 419
f 419 421 422
f 419 422 420
f 421 417 423
f 421 423 422
f 422 423 424
f 422 424 420
f 423 417 425
f 423 425 424
f 424 425 426
f 424 426 420
f 425 417 427
f 425 427 426
f 426 427 428
f 426 428 420
f 427 417 429
f 427 429 428
f 428 429 430
f 428 430 420
f 429 417 431
f 429 431 430
f 430 431 432
f 430 432 420
f 431 417 433
f 431 433 432
f 432 433 434
f 432 434 420
f 433 417 435
f 433 435 434
f 434 435 436
f 434 436 420
f 435 417 437
f 435 437 436
f 436 437 438
f 436 438 420
f 437 417 439
f 437 439 438
f 438 439 440
f 438 440 420
f 439 417 441
f 439 441 440
f 440 441 442
f 440 442 420
f 441 417 443
f 441 443 442
f 442 443 444
f 442 444 420
f 443 417 445
f 443 445 444
f 444 445 446
f 444 446 420
f 445 417 447
f 445 447 446
f 446 447 448
f 446 448 420
f 447 417 449
f 447 449 448
f 448 449 450
f 448 450 420
f 449 417 451
f 449 451 450
f 450 451 452
f 450 452 420
f 451 417 453
f 451 453 452
f 452 453 454
f 452 454 420
f 453 417 455
f 453 455 454
f 454 455 456
f 454 456 420
f 455 417 457
f 455 457 456
f 456 457 458
f 456 458 420
f 457 417 459
f 457 459 458
f 458 459 460
f 458 460 420
f 459 417 461
f 459 461 460
f 460 461 462
f 460 462 420
f 461 417 463
f 461 463 462
f 462 463 464
f 462 464 420
f 463 417 465
f 463 465 464
f 464 465 466
f 464 466 420
f 465 417 467
f 465 467 466
f 466 467 468
f 466 468 420
f 467 417 469
f 467 469 468
f 468 469 470
f 468 470 420
f 469 417 471
f 469 471 470
f 470 471 472
f 470 472 420
f 471 417 473
f 471 473 472
f 472 473 474
f 472 474 420
f 473 417 475
f 473 475 474
f 474 475 476
f 474 476 420
f 475 417 477
f 475 477 476
f 476 477 478
f 476 478 420
f 477 417 479
f 477 479 478
f 478 479 480
f 478 480 420
f 479 417 481
f 479 481 480
f 480 481 482
f 480 482 420
f 481 417 483
f 481 483 482
f 482 483 484
f 482 484 420
f 483 417 485
f 483 485 484
f 484 485 486
f 484 486 420
f 485 417 487
f 485 487 486
f 486 487 488
f 486 488 420
f 487 417 489
f 487 489 488
f 488 489 490
f 488 490 420
f 489 417 491
f 489 491 490
f 490 491 492
f 490 492 420
f 491 417 493
f 491 493 492
f 492 493 494
f 492 494 420
f 493 417 495
f 493 495 494
f 494 495 496
f 494 496 420
f 495 417 497
f 495 497 496
f 496 497 498
f 496 498 420
f 497 417 418
f 497 418 498
f 498 418 419
f 498 419 420
f 500 499 503
f 500 503 501
f 501 503 504
f 501 504 502
f 503 499 505
f 503 505 504
f 504 505 506
f 504 506 502
f 505 499 507
f 505 507 506
f 506 507 508
f 506 508 502
f 507 499 509
f 507 509 508
f 508 509 510
f 508 510 502
f 509 499 511
f 509 511 510
f 510 511 512
f 510 512 502
f 511 499 513
f 511 513 512
f 512 513 514
f 512 514 502
f 513 499 515
f 513 515 514
f 514 515 516
f 514 516 502
f 515 499 517
f 515 517 516
f 516 517 518
f 516 518 502
f 517 499 519
f 517 519 518
f 518 519 520
f 518 520 502
f 519 499 521
f 519 521 520
f 520 521 522
f 520 522 502
f 521 499 523
f 521 523 522
f 522 523 524
f 522 524 502
f 523 499 525
f 523 525 524
f 524 525 526
f 524 526 502
f 525 499 527
f 525 527 526
f 526 527 528
f 526 528 502
f 527 499 529
f 527 529 528
f 528 529 530
f 528 530 502
f 529 499 531
f 529 531 530
f 530 531 532
f 530 532 502
f 531 499 533
f 531 533 532
f 532 533 534
f 532 534 502
f 533 499 535
f 533 535 534
f 534 535 536
f 534 536 502
f 535 499 537
f 535 537 536
f 536 537 538
f 536 538 502
f 537 499 539
f 537 539 538
f 538 539 540
f 538 540 502
f 539 499 541
f 539 541 540
f 540 541 542
f 540 542 502
f 541 499 543
f 541 543 542
f 542 543 544
f 542 544 502
f 543 499 545
f 543 545 544
f 544 545 546
f 544 546 502
f 545 499 547
f 545 547 546
f 546 547 548
f 546 548 502
f 547 499 549
f 547 549 548
f 548 549 550
f 548 550 502
f 549 499 551
f 549 551 550
f 550 551 552
f 550 552 502
f 551 499 553
f 551 553 552
f 552 553 554
f 552 554 502
f 553 499 555
f 553 555 554
f 554 555 556
f 554 556 502
f 555 499 557
f 555 557 556
f 556 557 558
f 556 558 502
f 557 499 559
f 557 559 558
f 558 559 560
f 558 560 502
f 559 499 561
f 559 561 560
f 560 561 562
f 560 562 502
f 561 499 563
f 561 563 562
f 562 563 564
f 562 564 502
f 563 499 565
f 563 565 564
f 564 565 566
f 564 566 502
f 565 499 567
f 565 567 566
f 566 567 568
f 566 568 502
f 567 499 569
f 567 569 568
f 568 569 570
f 568 570 502
f 569 499 571
f 569 571 570
f 570 571 572
f 570 572 502
f 571 499 573
f 571 573 572
f 572 573 574
f 572 574 502
f 573 499 575
f 573 575 574
f 574 575 576
f 574 576 502
f 575 499 577
f 575 577 576
f 576 577 578
f 576 578 502
f 577 499 579
f 577 579 578
f 578 579 580
f 578 580 502
f 579 499 500
f 579 500 580
f 580 500 501
f 580 501 502
f 582 581 585
f 582 585 583
f 583 585 586
f 583 586 584
f 585 581 587
f 585 587 586
f 586 587 588
f 586 588 584
f 587 581 589
f 587 589 588
f 588 589 590
f 588 590 584
f 589 581 591
f 589 591 590
f 590 591 592
f 590 592 584
f 591 581 593
f 591 593 592
f 592 593 594
f 592 594 584
f 593 581 595
f 593 595 594
f 594 595 596
f 594 596 584
f 595 581 597
f 595 597 596
f 596 597 598
f 596 598 584
f 597 581 599
f 597 599 598
f 598 599 600
f 598 600 584
f 599 581 601
f 599 601 600
f 600 601 602
f 600 602 584
f 601 581 603
f 601 603 602
f 602 603 604
f 602 604 584
f 603 581 605
f 603 605 604
f 604 605 606
f 604 606 584
f 605 581 607
f 605 607 606
f 606 607 608
f 606 608 584
f 607 581 609
f 607 609 608
f 608 609 610
f 608 610 584
f 609 581 611
f 609 611 610
f 610 611 612
f 610 612 584
f 611 581 613
f 611 613 612
f 612 613 614
f 612 614 584
f 613 581 615
f 613 615 614
f 614 615 616
f 614 616 584
f 615 581 617
f 615 617 616
f 616 617 618
f 616 618 584
f 617 581 619
f 617 619 618
f 618 619 620
f 618 620 584
f 619 581 621
f 619 621 620
f 620 621 622
f 620 622 584
f 621 581 623
f 621 623 622
f 622 623 624
f 622 624 584
f 623 581 625
f 623 625 624
f 624 625 626
f 624 626 584
f 625 581 627
f 625 627 626
f 626 627 628
f 626 628 584
f 627 581 629
f 627 629 628
f 628 629 630
f 628 630 584
f 629 581 631
f 629 631 630
f 630 631 632
f 630 632 584
f 631 581 633
f 631 633 632
f 632 633 634
f 632 634 584
f 633 581 635
f 633 635 634
f 634 635 636
f 634 636 584
f 635 581 637
f 635 637 636
f 636 637 638
f 636 638 584
f 637 581 639
f 637 639 638
f 638 639 640
f 638 640 584
f 639 581 641
f 639 641 640
f 640 641 642
f 640 642 584
f 641 581 643
f 641 643 642
f 642 643 644
f 642 644 584
f 643 581 645
f 643 645 644
f 644 645 646
f 644 646 584
f 645 581 647
f 645 647 646
f 646 647 648
f 646 648 584
f 647 581 649
f 647 649 648
f 648 649 650
f 648 650 584
f 649 581 651
f 649 651 650
f 650 651 652
f 650 652 584
f 651 581 653
f 651 653 652
f 652 653 654
f 652 654 584
f 653 581 655
f 653 655 654
f 654 655 656
f 654 656 584
f 655 581 657
f 655 657 656
f 656 657 658
f 656 658 584
f 657 581 659
f 657 659 658
f 658 659 660
f 658 660 584
f 659 581 661
f 659 661 660
f 660 661 662
f 660 662 584
f 661 581 582
f 661 582 662
f 662 582 583
f 662 583 584
f 664 666 663
f 667 664 663
f 663 666 665
f 665 667 663
f 664 670 666
f 668 664 667
f 668 670 664
f 666 670 665
f 669 667 665
f 665 670 669
f 669 668 667
f 670 668 669
f 672 674 671
f 675 672 671
f 671 674 673
f 673 675 671
f 672 678 674
f 676 672 675
f 676 678 672
f 674 678 673
f 677 675 673
f 673 678 677
f 677 676 675
f 678 676 677
f 680 682 679
f 683 680 679
f 679 682 681
f 681 683 679
f 680 686 682
f 684 680 683
f 684 686 680
f 682 686 681
f 685 683 681
f 681 686 685
f 685 684 683
f 686 684 685
f 688 690 687
f 691 688 687
f 687 690 689
f 689 691 687
f 688 694 690
f 692 688 691
f 692 694 688
f 690 694 689
f 693 691 689
f 689 694 693
f 693 692 691
f 694 692 693

